<?xml version="1.0" standalone="no"?><!DOCTYPE svg PUBLIC "-//W3C//DTD SVG 1.1//EN" "http://www.w3.org/Graphics/SVG/1.1/DTD/svg11.dtd"><svg t="1519804971596" class="icon" style="" viewBox="0 0 1024 1024" version="1.1" xmlns="http://www.w3.org/2000/svg" p-id="6087" xmlns:xlink="http://www.w3.org/1999/xlink" width="200" height="200"><defs><style type="text/css"></style></defs><path d="M808.421053 1024 808.421053 916.210526 916.210526 916.210526 916.210526 808.421053 808.421053 808.421053 808.421053 700.631579 700.631579 700.631579 700.631579 808.421053 592.842105 808.421053 592.842105 916.210526 700.631579 916.210526 700.631579 1024Z" p-id="6088"></path><path d="M916.210526 11.317895C916.210526 5.066105 911.252211 0 905.108211 0L118.891789 0C112.747789 0 107.789474 5.012211 107.789474 11.317895l0 1001.364211C107.789474 1018.933895 112.747789 1024 118.891789 1024l493.029053 0C567.188211 984.495158 538.947368 926.72 538.947368 862.315789L215.578947 862.315789l0-53.894737 330.159158 0c10.886737-42.361263 34.384842-79.710316 66.182737-107.789474L215.578947 700.631579l0-53.894737 592.842105 0 0 6.790737c42.361263 10.886737 79.710316 34.384842 107.789474 66.182737L916.210526 11.317895zM808.421053 538.947368 215.578947 538.947368 215.578947 485.052632l592.842105 0L808.421053 538.947368zM808.421053 377.263158 215.578947 377.263158 215.578947 323.368421l592.842105 0L808.421053 377.263158zM808.421053 215.578947 215.578947 215.578947 215.578947 161.684211l592.842105 0L808.421053 215.578947z" p-id="6089"></path></svg>